<svg width="44" height="51" viewBox="0 0 44 51" fill="none" xmlns="http://www.w3.org/2000/svg">
<path d="M43.3205 43.068C43.3205 44.0492 43.1326 44.9837 42.7566 45.8714C42.3806 46.7358 41.8636 47.4951 41.2056 48.1492C40.5477 48.8034 39.7722 49.3174 38.8792 49.6911C38.0098 50.0649 37.0815 50.2518 36.0946 50.2518H7.22597C6.239 50.2518 5.29904 50.0649 4.40608 49.6911C3.53661 49.3174 2.77289 48.8034 2.11492 48.1492C1.45694 47.4951 0.939963 46.7358 0.563978 45.8714C0.187993 44.9837 0 44.0492 0 43.068V7.18384C0 6.20263 0.187993 5.27983 0.563978 4.41543C0.939963 3.52767 1.45694 2.76841 2.11492 2.13763C2.77289 1.48349 3.53661 0.969526 4.40608 0.595733C5.29904 0.198578 6.239 0 7.22597 0H36.0946C37.0815 0 38.0098 0.198578 38.8792 0.595733C39.7722 0.969526 40.5477 1.48349 41.2056 2.13763C41.8636 2.76841 42.3806 3.52767 42.7566 4.41543C43.1326 5.27983 43.3205 6.20263 43.3205 7.18384V43.068ZM5.25098 5.74307V44.5088H38.0696V5.74307H5.25098Z" fill="#8CDFDA"/>
<path d="M43.3204 43.0678C43.3204 44.049 43.1324 44.9835 42.7564 45.8712C42.3804 46.7356 41.8634 47.4949 41.2054 48.149C40.5475 48.8032 39.772 49.3171 38.879 49.6909C38.0096 50.0647 37.0814 50.2516 36.0944 50.2516H7.22593C6.23898 50.2516 5.29902 50.0647 4.40606 49.6909C3.53659 49.3171 2.77288 48.8032 2.11491 48.149C1.45694 47.4949 0.939959 46.7356 0.563975 45.8712C0.187992 44.9835 0 44.049 0 43.0678V7.18381C0 6.20261 0.187992 5.27981 0.563975 4.41541C0.939959 3.52766 1.45694 2.76839 2.11491 2.13762C2.77288 1.48349 3.53659 0.969522 4.40606 0.59573C5.29902 0.198577 6.23898 0 7.22593 0H36.0944C37.0814 0 38.0096 0.198577 38.879 0.59573C39.772 0.969522 40.5475 1.48349 41.2054 2.13762C41.8634 2.76839 42.3804 3.52766 42.7564 4.41541C43.1324 5.27981 43.3204 6.20261 43.3204 7.18381V43.0678ZM5.25095 5.74304V44.5086H38.0694V5.74304H5.25095Z" fill="#FFBB0F"/>
<path d="M13.9961 38.2794L8 11H10.9981L15.6487 32.7056L20.2847 11H23.2828L27.9188 32.7056L32.5694 11H35.5675L29.5714 38.2794H26.2808L21.7911 17.8294L17.2867 38.2794H13.9961Z" fill="#1ECA00"/>
</svg>
