<svg width="35" height="36" viewBox="0 0 35 36" fill="none" xmlns="http://www.w3.org/2000/svg">
<path d="M3.88889 8.27778C4.92029 8.27778 5.90944 7.86806 6.63875 7.13875C7.36806 6.40944 7.77778 5.42029 7.77778 4.38889C7.77778 3.35749 7.36806 2.36834 6.63875 1.63903C5.90944 0.909721 4.92029 0.5 3.88889 0.5C2.85749 0.5 1.86834 0.909721 1.13903 1.63903C0.409721 2.36834 0 3.35749 0 4.38889C0 5.42029 0.409721 6.40944 1.13903 7.13875C1.86834 7.86806 2.85749 8.27778 3.88889 8.27778ZM17.5 8.27778C18.5314 8.27778 19.5205 7.86806 20.2499 7.13875C20.9792 6.40944 21.3889 5.42029 21.3889 4.38889C21.3889 3.35749 20.9792 2.36834 20.2499 1.63903C19.5205 0.909721 18.5314 0.5 17.5 0.5C16.4686 0.5 15.4794 0.909721 14.7501 1.63903C14.0208 2.36834 13.6111 3.35749 13.6111 4.38889C13.6111 5.42029 14.0208 6.40944 14.7501 7.13875C15.4794 7.86806 16.4686 8.27778 17.5 8.27778ZM31.1111 8.27778C32.1425 8.27778 33.1317 7.86806 33.861 7.13875C34.5903 6.40944 35 5.42029 35 4.38889C35 3.35749 34.5903 2.36834 33.861 1.63903C33.1317 0.909721 32.1425 0.5 31.1111 0.5C30.0797 0.5 29.0906 0.909721 28.3613 1.63903C27.6319 2.36834 27.2222 3.35749 27.2222 4.38889C27.2222 5.42029 27.6319 6.40944 28.3613 7.13875C29.0906 7.86806 30.0797 8.27778 31.1111 8.27778ZM3.88889 21.8889C4.92029 21.8889 5.90944 21.4792 6.63875 20.7499C7.36806 20.0205 7.77778 19.0314 7.77778 18C7.77778 16.9686 7.36806 15.9794 6.63875 15.2501C5.90944 14.5208 4.92029 14.1111 3.88889 14.1111C2.85749 14.1111 1.86834 14.5208 1.13903 15.2501C0.409721 15.9794 0 16.9686 0 18C0 19.0314 0.409721 20.0205 1.13903 20.7499C1.86834 21.4792 2.85749 21.8889 3.88889 21.8889ZM17.5 21.8889C18.5314 21.8889 19.5205 21.4792 20.2499 20.7499C20.9792 20.0205 21.3889 19.0314 21.3889 18C21.3889 16.9686 20.9792 15.9794 20.2499 15.2501C19.5205 14.5208 18.5314 14.1111 17.5 14.1111C16.4686 14.1111 15.4794 14.5208 14.7501 15.2501C14.0208 15.9794 13.6111 16.9686 13.6111 18C13.6111 19.0314 14.0208 20.0205 14.7501 20.7499C15.4794 21.4792 16.4686 21.8889 17.5 21.8889ZM31.1111 21.8889C32.1425 21.8889 33.1317 21.4792 33.861 20.7499C34.5903 20.0205 35 19.0314 35 18C35 16.9686 34.5903 15.9794 33.861 15.2501C33.1317 14.5208 32.1425 14.1111 31.1111 14.1111C30.0797 14.1111 29.0906 14.5208 28.3613 15.2501C27.6319 15.9794 27.2222 16.9686 27.2222 18C27.2222 19.0314 27.6319 20.0205 28.3613 20.7499C29.0906 21.4792 30.0797 21.8889 31.1111 21.8889ZM3.88889 35.5C4.92029 35.5 5.90944 35.0903 6.63875 34.361C7.36806 33.6317 7.77778 32.6425 7.77778 31.6111C7.77778 30.5797 7.36806 29.5906 6.63875 28.8613C5.90944 28.1319 4.92029 27.7222 3.88889 27.7222C2.85749 27.7222 1.86834 28.1319 1.13903 28.8613C0.409721 29.5906 0 30.5797 0 31.6111C0 32.6425 0.409721 33.6317 1.13903 34.361C1.86834 35.0903 2.85749 35.5 3.88889 35.5ZM17.5 35.5C18.5314 35.5 19.5205 35.0903 20.2499 34.361C20.9792 33.6317 21.3889 32.6425 21.3889 31.6111C21.3889 30.5797 20.9792 29.5906 20.2499 28.8613C19.5205 28.1319 18.5314 27.7222 17.5 27.7222C16.4686 27.7222 15.4794 28.1319 14.7501 28.8613C14.0208 29.5906 13.6111 30.5797 13.6111 31.6111C13.6111 32.6425 14.0208 33.6317 14.7501 34.361C15.4794 35.0903 16.4686 35.5 17.5 35.5ZM31.1111 35.5C32.1425 35.5 33.1317 35.0903 33.861 34.361C34.5903 33.6317 35 32.6425 35 31.6111C35 30.5797 34.5903 29.5906 33.861 28.8613C33.1317 28.1319 32.1425 27.7222 31.1111 27.7222C30.0797 27.7222 29.0906 28.1319 28.3613 28.8613C27.6319 29.5906 27.2222 30.5797 27.2222 31.6111C27.2222 32.6425 27.6319 33.6317 28.3613 34.361C29.0906 35.0903 30.0797 35.5 31.1111 35.5Z" fill="#F4F6F9"/>
</svg>
