<svg width="45" height="46" viewBox="0 0 45 46" fill="none" xmlns="http://www.w3.org/2000/svg">
<g filter="url(#filter0_i_6085_1093)">
<circle cx="22.5" cy="23.126" r="22.5" fill="#320A6B"/>
</g>
<path d="M19.0124 16.074C19.6104 14.324 22.0284 14.271 22.7374 15.915L22.7974 16.075L23.6044 18.435C23.7893 18.9762 24.0882 19.4715 24.4808 19.8874C24.8734 20.3033 25.3507 20.6302 25.8804 20.846L26.0974 20.927L28.4574 21.733C30.2074 22.331 30.2604 24.749 28.6174 25.458L28.4574 25.518L26.0974 26.325C25.556 26.5098 25.0605 26.8086 24.6444 27.2012C24.2283 27.5939 23.9013 28.0712 23.6854 28.601L23.6044 28.817L22.7984 31.178C22.2004 32.928 19.7824 32.981 19.0744 31.338L19.0124 31.178L18.2064 28.818C18.0216 28.2766 17.7227 27.7811 17.3301 27.365C16.9375 26.9489 16.4602 26.6219 15.9304 26.406L15.7144 26.325L13.3544 25.519C11.6034 24.921 11.5504 22.503 13.1944 21.795L13.3544 21.733L15.7144 20.927C16.2556 20.742 16.7509 20.4432 17.1668 20.0505C17.5827 19.6579 17.9096 19.1807 18.1254 18.651L18.2064 18.435L19.0124 16.074ZM28.9054 12.626C29.0925 12.626 29.2758 12.6785 29.4345 12.7774C29.5933 12.8764 29.7211 13.018 29.8034 13.186L29.8514 13.303L30.2014 14.329L31.2284 14.679C31.4159 14.7427 31.5802 14.8606 31.7006 15.0178C31.821 15.175 31.892 15.3644 31.9047 15.562C31.9173 15.7596 31.871 15.9565 31.7716 16.1278C31.6722 16.299 31.5242 16.4369 31.3464 16.524L31.2284 16.572L30.2024 16.922L29.8524 17.949C29.7886 18.1364 29.6706 18.3007 29.5133 18.421C29.356 18.5413 29.1666 18.6122 28.969 18.6247C28.7714 18.6372 28.5746 18.5908 28.4034 18.4914C28.2322 18.3919 28.0944 18.2438 28.0074 18.066L27.9594 17.949L27.6094 16.923L26.5824 16.573C26.3949 16.5093 26.2305 16.3914 26.1101 16.2342C25.9898 16.077 25.9187 15.8876 25.9061 15.69C25.8935 15.4924 25.9398 15.2954 26.0392 15.1242C26.1385 14.9529 26.2865 14.815 26.4644 14.728L26.5824 14.68L27.6084 14.33L27.9584 13.303C28.0258 13.1054 28.1534 12.9339 28.3232 12.8125C28.493 12.6911 28.6966 12.6259 28.9054 12.626Z" fill="#D9D9D9"/>
<defs>
<filter id="filter0_i_6085_1093" x="0" y="0.625977" width="45" height="45" filterUnits="userSpaceOnUse" color-interpolation-filters="sRGB">
<feFlood flood-opacity="0" result="BackgroundImageFix"/>
<feBlend mode="normal" in="SourceGraphic" in2="BackgroundImageFix" result="shape"/>
<feColorMatrix in="SourceAlpha" type="matrix" values="0 0 0 0 0 0 0 0 0 0 0 0 0 0 0 0 0 0 127 0" result="hardAlpha"/>
<feOffset/>
<feGaussianBlur stdDeviation="5"/>
<feComposite in2="hardAlpha" operator="arithmetic" k2="-1" k3="1"/>
<feColorMatrix type="matrix" values="0 0 0 0 0.956863 0 0 0 0 0.964706 0 0 0 0 0.976471 0 0 0 1 0"/>
<feBlend mode="normal" in2="shape" result="effect1_innerShadow_6085_1093"/>
</filter>
</defs>
</svg>
