<svg width="38" height="36" viewBox="0 0 38 36" fill="none" xmlns="http://www.w3.org/2000/svg">
<path d="M5.83028 16.4536L5.01926 16.656C4.29572 16.8368 3.6534 17.2543 3.19437 17.8421C2.73534 18.4299 2.48595 19.1543 2.48584 19.9001V23.0388C2.48595 23.7846 2.73534 24.509 3.19437 25.0968C3.6534 25.6846 4.29572 26.1021 5.01926 26.283L7.92892 27.0104C8.07677 27.0472 8.23107 27.0499 8.38011 27.0182C8.52914 26.9865 8.669 26.9212 8.78907 26.8274C8.90914 26.7336 9.00627 26.6137 9.0731 26.4768C9.13992 26.3399 9.17467 26.1895 9.17473 26.0371V16.9018C9.17474 16.7492 9.13996 16.5987 9.07304 16.4616C9.00613 16.3245 8.90883 16.2045 8.78856 16.1107C8.66828 16.0168 8.52819 15.9517 8.37894 15.9201C8.22969 15.8885 8.07521 15.8914 7.92725 15.9286L5.83028 16.4536ZM5.83028 16.4536V15.6175C5.83028 12.0695 7.23972 8.66683 9.74854 6.15801C12.2574 3.64919 15.6601 2.23975 19.2081 2.23975C22.7561 2.23975 26.1588 3.64919 28.6676 6.15801C31.1764 8.66683 32.5858 12.0695 32.5858 15.6175V16.4536M32.5858 16.4536L33.3969 16.656C34.1204 16.8368 34.7627 17.2543 35.2218 17.8421C35.6808 18.4299 35.9302 19.1543 35.9303 19.9001V23.0388C35.9302 23.7846 35.6808 24.509 35.2218 25.0968C34.7627 25.6846 34.1204 26.1021 33.3969 26.283L32.5858 26.487M32.5858 16.4536L30.4872 15.9286C30.3393 15.8917 30.1851 15.8891 30.036 15.9208C29.887 15.9525 29.7471 16.0177 29.6271 16.1115C29.507 16.2053 29.4098 16.3252 29.343 16.4621C29.2762 16.5991 29.2414 16.7494 29.2414 16.9018V26.0371C29.2414 26.1895 29.2762 26.3399 29.343 26.4768C29.4098 26.6137 29.507 26.7336 29.6271 26.8274C29.7471 26.9212 29.887 26.9865 30.036 27.0182C30.1851 27.0499 30.3393 27.0472 30.4872 27.0104L32.5858 26.487M32.5858 26.487V28.1592C32.5858 29.0462 32.2335 29.8969 31.6063 30.5241C30.9791 31.1513 30.1284 31.5036 29.2414 31.5036H24.2247M24.2247 31.5036C24.2247 30.8384 23.9605 30.2004 23.4901 29.73C23.0197 29.2596 22.3816 28.9953 21.7164 28.9953H16.6997C16.0345 28.9953 15.3965 29.2596 14.9261 29.73C14.4557 30.2004 14.1914 30.8384 14.1914 31.5036C14.1914 32.1689 14.4557 32.8069 14.9261 33.2773C15.3965 33.7477 16.0345 34.012 16.6997 34.012H21.7164C22.3816 34.012 23.0197 33.7477 23.4901 33.2773C23.9605 32.8069 24.2247 32.1689 24.2247 31.5036Z" stroke="#F4F6F9" stroke-width="3"/>
</svg>
