<svg width="33" height="36" viewBox="0 0 33 36" fill="none" xmlns="http://www.w3.org/2000/svg">
<path d="M18.709 33.4414C18.1321 33.8283 17.4675 34.0611 16.7773 34.1143L16.4658 34.126H16.4639C15.6638 34.1263 14.8839 33.8863 14.2207 33.4414H18.709ZM16.4648 2.12598C19.4869 2.12598 22.3855 3.32694 24.5225 5.46387C26.6592 7.60072 27.8593 10.4986 27.8594 13.5205V20.0215C27.86 20.5392 27.9813 21.0497 28.2129 21.5127V21.5137L31.374 27.8379C31.4141 27.9181 31.4337 28.0072 31.4297 28.0967C31.4257 28.1862 31.3986 28.2734 31.3516 28.3496C31.3044 28.4259 31.2385 28.4895 31.1602 28.5332C31.0818 28.5769 30.993 28.5996 30.9033 28.5996H2.02637C1.9368 28.5996 1.84877 28.5767 1.77051 28.5332C1.69214 28.4895 1.62628 28.4259 1.5791 28.3496C1.53197 28.2733 1.50501 28.1863 1.50098 28.0967C1.497 28.0071 1.51558 27.9181 1.55566 27.8379L4.71875 21.5137L4.71973 21.5117C4.92198 21.1057 5.03867 20.6634 5.06445 20.2119L5.07031 20.0186V13.5205C5.07037 10.4985 6.27132 7.60075 8.4082 5.46387C10.5451 3.32699 13.4428 2.12603 16.4648 2.12598Z" stroke="#F4F6F9" stroke-width="3"/>
</svg>
