<svg width="35" height="36" viewBox="0 0 35 36" fill="none" xmlns="http://www.w3.org/2000/svg">
<path d="M31.8825 19.2742C31.6035 18.9566 31.4497 18.5484 31.4497 18.1257C31.4497 17.7031 31.6035 17.2948 31.8825 16.9773L34.1098 14.4716C34.3552 14.1978 34.5076 13.8533 34.5451 13.4876C34.5826 13.1218 34.5033 12.7536 34.3186 12.4357L30.8384 6.41506C30.6556 6.09753 30.3771 5.84584 30.0428 5.69586C29.7085 5.54588 29.3353 5.50527 28.9766 5.57982L25.7052 6.24105C25.289 6.32706 24.8556 6.25773 24.487 6.04616C24.1183 5.83459 23.8399 5.4954 23.7041 5.0926L22.6427 1.90827C22.526 1.56266 22.3036 1.26247 22.0069 1.05014C21.7103 0.837812 21.3544 0.724081 20.9896 0.725023H14.0294C13.6499 0.705217 13.2744 0.810158 12.9602 1.02382C12.646 1.23748 12.4104 1.54811 12.2893 1.90827L11.3148 5.0926C11.1791 5.4954 10.9007 5.83459 10.532 6.04616C10.1634 6.25773 9.73002 6.32706 9.31376 6.24105L5.95542 5.57982C5.61533 5.53176 5.26862 5.58543 4.95897 5.73406C4.64932 5.88269 4.39058 6.11964 4.21535 6.41506L0.735211 12.4357C0.545821 12.75 0.460666 13.1162 0.491918 13.4819C0.523171 13.8475 0.669231 14.1939 0.909217 14.4716L3.11911 16.9773C3.39807 17.2948 3.55192 17.7031 3.55192 18.1257C3.55192 18.5484 3.39807 18.9566 3.11911 19.2742L0.909217 21.7799C0.669231 22.0575 0.523171 22.4039 0.491918 22.7696C0.460666 23.1353 0.545821 23.5014 0.735211 23.8158L4.21535 29.8364C4.39823 30.1539 4.67668 30.4056 5.011 30.5556C5.34533 30.7056 5.71847 30.7462 6.07723 30.6716L9.34856 30.0104C9.76482 29.9244 10.1982 29.9937 10.5668 30.2053C10.9355 30.4169 11.2139 30.7561 11.3496 31.1589L12.4111 34.3432C12.5322 34.7034 12.7678 35.014 13.082 35.2277C13.3962 35.4413 13.7717 35.5463 14.1512 35.5264H21.1114C21.4762 35.5274 21.8321 35.4137 22.1287 35.2013C22.4254 34.989 22.6478 34.6888 22.7645 34.3432L23.826 31.1589C23.9617 30.7561 24.2401 30.4169 24.6088 30.2053C24.9774 29.9937 25.4108 29.9244 25.827 30.0104L29.0984 30.6716C29.4571 30.7462 29.8303 30.7056 30.1646 30.5556C30.4989 30.4056 30.7774 30.1539 30.9603 29.8364L34.4404 23.8158C34.6251 23.4979 34.7044 23.1296 34.6669 22.7639C34.6294 22.3981 34.477 22.0537 34.2316 21.7799L31.8825 19.2742ZM29.2898 21.6059L30.6818 23.1719L28.4545 27.0349L26.4013 26.6173C25.148 26.3611 23.8444 26.574 22.7377 27.2155C21.6311 27.8571 20.7985 28.8826 20.398 30.0974L19.7368 32.0463H15.2822L14.6558 30.0626C14.2553 28.8478 13.4227 27.8223 12.3161 27.1807C11.2094 26.5392 9.90577 26.3263 8.65253 26.5825L6.59925 27.0001L4.33716 23.1545L5.72922 21.5885C6.58525 20.6314 7.05851 19.3924 7.05851 18.1083C7.05851 16.8243 6.58525 15.5853 5.72922 14.6282L4.33716 13.0621L6.56445 9.23397L8.61773 9.65159C9.87097 9.90777 11.1746 9.69488 12.2813 9.05335C13.3879 8.41182 14.2205 7.38629 14.621 6.17145L15.2822 4.20517H19.7368L20.398 6.18885C20.7985 7.40369 21.6311 8.42922 22.7377 9.07075C23.8444 9.71228 25.148 9.92517 26.4013 9.66899L28.4545 9.25137L30.6818 13.1143L29.2898 14.6804C28.4433 15.6353 27.976 16.8671 27.976 18.1431C27.976 19.4192 28.4433 20.651 29.2898 21.6059ZM17.5095 11.1655C16.1329 11.1655 14.7872 11.5737 13.6426 12.3385C12.498 13.1033 11.6058 14.1903 11.079 15.4621C10.5522 16.734 10.4144 18.1335 10.683 19.4836C10.9515 20.8338 11.6144 22.074 12.5878 23.0474C13.5612 24.0208 14.8015 24.6837 16.1516 24.9523C17.5018 25.2208 18.9013 25.083 20.1731 24.5562C21.4449 24.0294 22.532 23.1373 23.2968 21.9927C24.0616 20.848 24.4698 19.5023 24.4698 18.1257C24.4698 16.2798 23.7365 14.5094 22.4312 13.2041C21.1259 11.8988 19.3555 11.1655 17.5095 11.1655ZM17.5095 21.6059C16.8212 21.6059 16.1483 21.4018 15.576 21.0194C15.0037 20.637 14.5577 20.0934 14.2943 19.4575C14.0309 18.8216 13.9619 18.1219 14.0962 17.4468C14.2305 16.7717 14.562 16.1516 15.0487 15.6649C15.5354 15.1782 16.1555 14.8467 16.8306 14.7125C17.5056 14.5782 18.2054 14.6471 18.8413 14.9105C19.4772 15.1739 20.0207 15.62 20.4031 16.1923C20.7855 16.7646 20.9896 17.4374 20.9896 18.1257C20.9896 19.0487 20.623 19.9339 19.9703 20.5866C19.3177 21.2392 18.4325 21.6059 17.5095 21.6059Z" fill="#F4F6F9"/>
</svg>
