<svg width="35" height="35" viewBox="0 0 35 35" fill="none" xmlns="http://www.w3.org/2000/svg">
<path d="M17.5 4.37818C14.5344 4.37832 11.6355 5.2575 9.16939 6.90464C6.70332 8.55177 4.78082 10.8929 3.64484 13.6323C2.50886 16.3717 2.21036 19.3863 2.78708 22.2952C3.36379 25.2042 4.78983 27.8769 6.885 29.9757C7.00422 30.0912 7.09924 30.2292 7.16453 30.3818C7.22981 30.5344 7.26406 30.6985 7.26526 30.8644C7.26646 31.0304 7.2346 31.195 7.17153 31.3485C7.10846 31.502 7.01545 31.6414 6.89792 31.7586C6.7804 31.8758 6.64071 31.9684 6.48701 32.0311C6.3333 32.0937 6.16866 32.1251 6.0027 32.1234C5.83673 32.1218 5.67276 32.0871 5.52035 32.0213C5.36794 31.9556 5.23015 31.8602 5.11501 31.7407C2.6706 29.2921 1.00687 26.1738 0.334068 22.78C-0.338735 19.3861 0.00957861 15.869 1.335 12.673C2.66041 9.47709 4.90345 6.74574 7.78065 4.82415C10.6579 2.90255 14.0401 1.87695 17.5 1.87695C20.9599 1.87695 24.3421 2.90255 27.2193 4.82415C30.0966 6.74574 32.3396 9.47709 33.665 12.673C34.9904 15.869 35.3387 19.3861 34.6659 22.78C33.9931 26.1738 32.3294 29.2921 29.885 31.7407C29.7699 31.8602 29.6321 31.9556 29.4796 32.0213C29.3272 32.0871 29.1633 32.1218 28.9973 32.1234C28.8313 32.1251 28.6667 32.0937 28.513 32.0311C28.3593 31.9684 28.2196 31.8758 28.1021 31.7586C27.9845 31.6414 27.8915 31.502 27.8285 31.3485C27.7654 31.195 27.7335 31.0304 27.7347 30.8644C27.7359 30.6985 27.7702 30.5344 27.8355 30.3818C27.9008 30.2292 27.9958 30.0912 28.115 29.9757C30.2102 27.8769 31.6362 25.2042 32.2129 22.2952C32.7896 19.3863 32.4911 16.3717 31.3552 13.6323C30.2192 10.8929 28.2967 8.55177 25.8306 6.90464C23.3645 5.2575 20.4656 4.37832 17.5 4.37818ZM17.5 10.6282C15.7693 10.6281 14.0775 11.1412 12.6384 12.1026C11.1994 13.0641 10.0778 14.4307 9.41546 16.0296C8.75314 17.6285 8.57986 19.388 8.91754 21.0854C9.25521 22.7828 10.0887 24.342 11.3125 25.5657C11.4319 25.681 11.5271 25.8189 11.5926 25.9714C11.6581 26.1239 11.6926 26.2879 11.6941 26.4539C11.6955 26.6199 11.6639 26.7845 11.601 26.9381C11.5382 27.0917 11.4454 27.2313 11.328 27.3487C11.2106 27.466 11.0711 27.5588 10.9174 27.6217C10.7638 27.6845 10.5992 27.7162 10.4333 27.7147C10.2673 27.7133 10.1033 27.6788 9.95075 27.6133C9.79824 27.5478 9.66031 27.4526 9.545 27.3332C7.97168 25.7598 6.90023 23.7553 6.46616 21.573C6.03209 19.3907 6.25488 17.1287 7.10637 15.0731C7.95786 13.0174 9.3998 11.2604 11.2499 10.0242C13.0999 8.78807 15.275 8.12828 17.5 8.12828C19.725 8.12828 21.9001 8.78807 23.7501 10.0242C25.6002 11.2604 27.0421 13.0174 27.8936 15.0731C28.7451 17.1287 28.9679 19.3907 28.5338 21.573C28.0998 23.7553 27.0283 25.7598 25.455 27.3332C25.2192 27.5609 24.9035 27.6869 24.5757 27.684C24.248 27.6812 23.9345 27.5497 23.7027 27.3179C23.471 27.0862 23.3395 26.7727 23.3367 26.4449C23.3338 26.1172 23.4598 25.8014 23.6875 25.5657C24.9113 24.342 25.7448 22.7828 26.0825 21.0854C26.4201 19.388 26.2469 17.6285 25.5845 16.0296C24.9222 14.4307 23.8006 13.0641 22.3616 12.1026C20.9225 11.1412 19.2307 10.6281 17.5 10.6282ZM17.5 14.3782C16.1739 14.3782 14.9021 14.905 13.9645 15.8426C13.0268 16.7803 12.5 18.0521 12.5 19.3782C12.5 20.7043 13.0268 21.976 13.9645 22.9137C14.9021 23.8514 16.1739 24.3782 17.5 24.3782C18.8261 24.3782 20.0978 23.8514 21.0355 22.9137C21.9732 21.976 22.5 20.7043 22.5 19.3782C22.5 18.0521 21.9732 16.7803 21.0355 15.8426C20.0978 14.905 18.8261 14.3782 17.5 14.3782ZM15 19.3782C15 18.7151 15.2634 18.0792 15.7322 17.6104C16.2011 17.1416 16.837 16.8782 17.5 16.8782C18.163 16.8782 18.7989 17.1416 19.2678 17.6104C19.7366 18.0792 20 18.7151 20 19.3782C20 20.0412 19.7366 20.6771 19.2678 21.1459C18.7989 21.6148 18.163 21.8782 17.5 21.8782C16.837 21.8782 16.2011 21.6148 15.7322 21.1459C15.2634 20.6771 15 20.0412 15 19.3782Z" fill="#320A6B"/>
</svg>
