<svg width="35" height="35" viewBox="0 0 35 35" fill="none" xmlns="http://www.w3.org/2000/svg">
<g clip-path="url(#clip0_6085_1139)">
<path d="M10.3906 15.3125C9.9555 15.3125 9.5382 15.4854 9.23053 15.793C8.92285 16.1007 8.75 16.518 8.75 16.9531C8.75 17.3882 8.92285 17.8055 9.23053 18.1132C9.5382 18.4209 9.9555 18.5938 10.3906 18.5938H20.2344C20.6695 18.5938 21.0868 18.4209 21.3945 18.1132C21.7021 17.8055 21.875 17.3882 21.875 16.9531C21.875 16.518 21.7021 16.1007 21.3945 15.793C21.0868 15.4854 20.6695 15.3125 20.2344 15.3125H10.3906ZM10.9375 10.3906C10.9375 9.9555 11.1104 9.5382 11.418 9.23053C11.7257 8.92285 12.143 8.75 12.5781 8.75H24.6094C25.0445 8.75 25.4618 8.92285 25.7695 9.23053C26.0771 9.5382 26.25 9.9555 26.25 10.3906C26.25 10.8257 26.0771 11.243 25.7695 11.5507C25.4618 11.8584 25.0445 12.0312 24.6094 12.0312H12.5781C12.143 12.0312 11.7257 11.8584 11.418 11.5507C11.1104 11.243 10.9375 10.8257 10.9375 10.3906ZM14.7656 21.875C14.3305 21.875 13.9132 22.0479 13.6055 22.3555C13.2979 22.6632 13.125 23.0805 13.125 23.5156C13.125 23.9507 13.2979 24.368 13.6055 24.6757C13.9132 24.9834 14.3305 25.1562 14.7656 25.1562H24.6094C25.0445 25.1562 25.4618 24.9834 25.7695 24.6757C26.0771 24.368 26.25 23.9507 26.25 23.5156C26.25 23.0805 26.0771 22.6632 25.7695 22.3555C25.4618 22.0479 25.0445 21.875 24.6094 21.875H14.7656Z" fill="#320A6B"/>
<path d="M0 3.82812C0 1.715 1.715 0 3.82812 0H31.1719C33.285 0 35 1.715 35 3.82812V31.1719C35 32.1872 34.5967 33.1609 33.8788 33.8788C33.1609 34.5967 32.1872 35 31.1719 35H3.82812C2.81284 35 1.83914 34.5967 1.12123 33.8788C0.403319 33.1609 0 32.1872 0 31.1719L0 3.82812ZM3.82812 3.28125C3.68308 3.28125 3.54399 3.33887 3.44143 3.44143C3.33887 3.54399 3.28125 3.68308 3.28125 3.82812V31.1719C3.28125 31.4737 3.52625 31.7188 3.82812 31.7188H31.1719C31.3169 31.7188 31.456 31.6611 31.5586 31.5586C31.6611 31.456 31.7188 31.3169 31.7188 31.1719V3.82812C31.7188 3.68308 31.6611 3.54399 31.5586 3.44143C31.456 3.33887 31.3169 3.28125 31.1719 3.28125H3.82812Z" fill="#320A6B"/>
</g>
<defs>
<clipPath id="clip0_6085_1139">
<rect width="35" height="35" fill="white"/>
</clipPath>
</defs>
</svg>
